<?xml version="1.0" encoding="UTF-8" standalone="no"?>
<!-- Created with Inkscape (http://www.inkscape.org/) -->

<svg
   xmlns:dc="http://purl.org/dc/elements/1.1/"
   xmlns:cc="http://creativecommons.org/ns#"
   xmlns:rdf="http://www.w3.org/1999/02/22-rdf-syntax-ns#"
   xmlns:svg="http://www.w3.org/2000/svg"
   xmlns="http://www.w3.org/2000/svg"
   xmlns:sodipodi="http://sodipodi.sourceforge.net/DTD/sodipodi-0.dtd"
   xmlns:inkscape="http://www.inkscape.org/namespaces/inkscape"
   width="10mm"
   height="10mm"
   viewBox="0 0 10 10"
   version="1.1"
   id="svg8"
   inkscape:version="0.92.5 (2060ec1f9f, 2020-04-08)"
   sodipodi:docname="favicon.svg">
  <defs
     id="defs2" />
  <sodipodi:namedview
     id="base"
     pagecolor="#ffffff"
     bordercolor="#666666"
     borderopacity="1.0"
     inkscape:pageopacity="0.0"
     inkscape:pageshadow="2"
     inkscape:zoom="7.9195959"
     inkscape:cx="8.3392246"
     inkscape:cy="32.018766"
     inkscape:document-units="mm"
     inkscape:current-layer="layer1"
     showgrid="false"
     inkscape:window-width="1920"
     inkscape:window-height="1060"
     inkscape:window-x="0"
     inkscape:window-y="0"
     inkscape:window-maximized="0" />
  <metadata
     id="metadata5">
    <rdf:RDF>
      <cc:Work
         rdf:about="">
        <dc:format>image/svg+xml</dc:format>
        <dc:type
           rdf:resource="http://purl.org/dc/dcmitype/StillImage" />
        <dc:title></dc:title>
      </cc:Work>
    </rdf:RDF>
  </metadata>
  <g
     inkscape:label="Layer 1"
     inkscape:groupmode="layer"
     id="layer1"
     transform="translate(0,-287)">
    <g
       aria-label="P"
       style="font-style:normal;font-variant:normal;font-weight:normal;font-stretch:normal;font-size:9.96196079px;line-height:1.25;font-family:Ubuntu;-inkscape-font-specification:Ubuntu;letter-spacing:0px;word-spacing:0px;fill:#000000;fill-opacity:1;stroke:none;stroke-width:0.26458332"
       id="text825">
      <path
         d="m 6.131493,289.19821 q 1.5441039,0 2.3709467,0.54791 0.8268427,0.53795 0.8268427,1.77323 0,1.24525 -0.8368047,1.80312 -0.8368047,0.5479 -2.3908706,0.5479 h -0.488136 v 2.31118 H 4.0594052 v -6.80402 q 0.50806,-0.0996 1.0758917,-0.13947 0.5678318,-0.0399 0.9961961,-0.0399 z m 0.09962,1.32495 q -0.1693533,0 -0.3387066,0.01 -0.1593914,0.01 -0.2789349,0.0199 v 1.99239 h 0.488136 q 0.8069189,0 1.2153593,-0.21916 0.4084403,-0.21916 0.4084403,-0.81688 0,-0.2889 -0.1095815,-0.47817 -0.09962,-0.18928 -0.2988588,-0.29886 -0.1892773,-0.11955 -0.4682122,-0.15939 -0.2789349,-0.0498 -0.6176416,-0.0498 z"
         style="font-style:normal;font-variant:normal;font-weight:bold;font-stretch:normal;font-family:Ubuntu;-inkscape-font-specification:'Ubuntu Bold';stroke-width:0.26458332"
         id="path846"
         inkscape:connector-curvature="0" />
    </g>
    <g
       aria-label="Q"
       transform="matrix(0.55146231,0,0,0.55146231,-0.71829353,282.43707)"
       style="font-style:normal;font-variant:normal;font-weight:normal;font-stretch:normal;font-size:13.33333302px;line-height:1.25;font-family:Ubuntu;-inkscape-font-specification:Ubuntu;letter-spacing:0px;word-spacing:0px;fill:#6887cd;fill-opacity:1;stroke:none;stroke-width:0.47978497"
       id="flowRoot815">
      <path
         d="m 5.465677,14.792891 q 0,0.68 0.16,1.226666 0.1733333,0.546667 0.48,0.946667 0.32,0.386666 0.7733333,0.6 0.4533333,0.213333 1.04,0.213333 0.5733333,0 1.0266666,-0.213333 0.4666667,-0.213334 0.7733333,-0.6 0.3199998,-0.4 0.4799998,-0.946667 0.173334,-0.546666 0.173334,-1.226666 0,-0.68 -0.173334,-1.226667 -0.16,-0.56 -0.4799998,-0.946667 -0.3066666,-0.4 -0.7733333,-0.613333 -0.4533333,-0.213333 -1.0266666,-0.213333 -0.5866667,0 -1.04,0.226666 -0.4533333,0.213334 -0.7733333,0.613334 -0.3066667,0.386666 -0.48,0.946666 -0.16,0.546667 -0.16,1.213334 z m 7.053333,0 q 0,0.973333 -0.24,1.76 -0.24,0.773333 -0.68,1.359999 -0.426666,0.586667 -1.026666,0.973334 -0.6000004,0.386666 -1.3200004,0.56 0.066667,0.266666 0.2933333,0.426666 0.2266667,0.173334 0.5733331,0.28 0.346667,0.106667 0.8,0.16 0.466667,0.05333 1,0.09333 l -0.426666,1.52 q -1.04,-0.04 -1.7866671,-0.213334 -0.7333333,-0.16 -1.2533333,-0.453333 Q 7.945677,20.96622 7.6390103,20.539553 7.345677,20.11289 7.185677,19.55289 6.3590103,19.446224 5.6523437,19.099557 q -0.7066667,-0.36 -1.2266667,-0.96 -0.5199999,-0.6 -0.8133333,-1.44 -0.2933333,-0.84 -0.2933333,-1.906666 0,-1.186667 0.3733333,-2.08 0.3733333,-0.906667 1,-1.52 0.64,-0.613334 1.4666666,-0.92 0.84,-0.306667 1.76,-0.306667 0.9466666,0 1.7866666,0.306667 0.8400001,0.306666 1.4666671,0.92 0.626666,0.613333 0.986666,1.52 0.36,0.893333 0.36,2.08 z"
         style="font-style:normal;font-variant:normal;font-weight:bold;font-stretch:normal;font-family:Ubuntu;-inkscape-font-specification:'Ubuntu Bold';fill:#6887cd;stroke-width:0.47978497"
         id="path849"
         inkscape:connector-curvature="0" />
    </g>
  </g>
</svg>
