<?xml version="1.0" standalone="no"?>
<!DOCTYPE svg PUBLIC "-//W3C//DTD SVG 20010904//EN"
 "http://www.w3.org/TR/2001/REC-SVG-20010904/DTD/svg10.dtd">
<svg version="1.0" xmlns="http://www.w3.org/2000/svg"
 width="700.000000pt" height="700.000000pt" viewBox="0 0 700.000000 700.000000"
 preserveAspectRatio="xMidYMid meet">
<metadata>
Created by potrace 1.11, written by Peter Selinger 2001-2013
</metadata>
<g transform="translate(0.000000,700.000000) scale(0.100000,-0.100000)"
fill="#000000" stroke="none">
<path d="M2396 6343 c-1 -1 -29 -5 -61 -8 -53 -5 -108 -14 -195 -31 -371 -73
-719 -278 -943 -554 -225 -279 -368 -628 -404 -990 -15 -145 -7 -619 11 -649
2 -3 7 -28 10 -55 32 -233 152 -533 297 -741 180 -257 459 -470 739 -565 36
-12 74 -26 85 -31 31 -14 217 -57 279 -64 l55 -7 22 -67 c28 -86 109 -250 156
-315 79 -111 168 -189 313 -276 l82 -49 2 -683 1 -683 543 -1 542 0 0 575 0
575 24 80 c13 45 43 150 66 234 l42 152 177 1 c295 2 436 10 676 40 79 10 109
15 151 23 12 2 37 7 56 10 20 3 105 23 191 45 589 151 953 439 1115 886 26 72
59 190 53 190 -1 0 2 12 8 27 5 14 13 52 16 85 3 32 10 85 15 118 9 64 6 433
-5 500 -42 266 -115 470 -230 641 -99 146 -289 307 -490 414 -78 41 -260 116
-340 139 -110 33 -232 62 -326 81 -103 19 -137 25 -234 36 -27 3 -61 7 -74 9
-22 4 -126 12 -261 20 -30 2 -143 4 -251 4 l-196 1 -52 88 c-71 120 -136 204
-233 304 -123 124 -209 191 -353 270 -153 84 -374 163 -529 188 -34 5 -71 12
-84 15 -72 14 -455 29 -466 18z m414 -733 c128 -34 238 -94 363 -200 15 -13 1
-17 -144 -42 -89 -15 -167 -29 -174 -32 -10 -3 -13 -200 -13 -981 0 -537 -3
-979 -7 -983 -15 -16 -171 -39 -267 -40 -277 -2 -504 89 -674 270 -135 143
-242 391 -270 623 -3 28 -8 61 -10 75 -4 32 -5 316 0 355 16 135 24 179 48
265 105 382 339 622 683 700 115 26 346 21 465 -10z m1755 -1084 c50 -3 101
-8 115 -10 14 -3 45 -7 70 -10 170 -22 304 -70 420 -150 159 -109 240 -292
235 -532 -6 -252 -84 -421 -246 -528 -59 -39 -199 -98 -264 -111 -22 -5 -44
-10 -50 -11 -37 -12 -277 -45 -355 -49 -75 -4 -493 -9 -547 -6 -9 1 -13 18
-13 52 0 41 6 58 29 88 169 214 309 559 345 852 4 24 8 62 11 84 3 22 8 105
11 185 4 80 10 147 15 150 9 6 80 5 224 -4z"/>
</g>
</svg>
